<svg width="21" height="20" viewBox="0 0 21 20" fill="none" xmlns="http://www.w3.org/2000/svg">
<g clip-path="url(#clip0_3_63)">
<rect width="24" height="24" transform="translate(-1.5 -2)" fill="#F37335"/>
<path d="M17.21 5.20986C17.117 5.11613 17.0064 5.04174 16.8846 4.99097C16.7627 4.9402 16.632 4.91406 16.5 4.91406C16.368 4.91406 16.2373 4.9402 16.1154 4.99097C15.9936 5.04174 15.883 5.11613 15.79 5.20986L8.34001 12.6699L5.21001 9.52986C5.11349 9.43662 4.99955 9.36331 4.87469 9.3141C4.74984 9.2649 4.61651 9.24077 4.48233 9.24309C4.34815 9.24541 4.21574 9.27414 4.09266 9.32763C3.96959 9.38113 3.85825 9.45834 3.76501 9.55486C3.67177 9.65138 3.59846 9.76532 3.54925 9.89018C3.50005 10.015 3.47592 10.1484 3.47824 10.2825C3.48056 10.4167 3.50929 10.5491 3.56278 10.6722C3.61628 10.7953 3.69349 10.9066 3.79001 10.9999L7.63001 14.8399C7.72297 14.9336 7.83358 15.008 7.95543 15.0588C8.07729 15.1095 8.208 15.1357 8.34001 15.1357C8.47202 15.1357 8.60273 15.1095 8.72459 15.0588C8.84645 15.008 8.95705 14.9336 9.05001 14.8399L17.21 6.67986C17.3115 6.58622 17.3925 6.47257 17.4479 6.34607C17.5033 6.21957 17.5319 6.08296 17.5319 5.94486C17.5319 5.80676 17.5033 5.67015 17.4479 5.54365C17.3925 5.41715 17.3115 5.3035 17.21 5.20986Z" fill="white"/>
</g>
<defs>
<clipPath id="clip0_3_63">
<rect x="0.5" width="20" height="20" rx="4" fill="white"/>
</clipPath>
</defs>
</svg>
