<svg width="20" height="21" viewBox="0 0 20 21" fill="none" xmlns="http://www.w3.org/2000/svg">
<path d="M15 9.45829C14.6583 9.45829 14.375 9.17496 14.375 8.83329V7.16663C14.375 4.54163 13.6333 2.79163 10 2.79163C6.36667 2.79163 5.625 4.54163 5.625 7.16663V8.83329C5.625 9.17496 5.34167 9.45829 5 9.45829C4.65833 9.45829 4.375 9.17496 4.375 8.83329V7.16663C4.375 4.74996 4.95833 1.54163 10 1.54163C15.0417 1.54163 15.625 4.74996 15.625 7.16663V8.83329C15.625 9.17496 15.3417 9.45829 15 9.45829Z" fill="#494949"/>
<path d="M14.1665 19.4584H5.83317C2.15817 19.4584 1.0415 18.3417 1.0415 14.6667V13C1.0415 9.32504 2.15817 8.20837 5.83317 8.20837H14.1665C17.8415 8.20837 18.9582 9.32504 18.9582 13V14.6667C18.9582 18.3417 17.8415 19.4584 14.1665 19.4584ZM5.83317 9.45837C2.84984 9.45837 2.2915 10.025 2.2915 13V14.6667C2.2915 17.6417 2.84984 18.2084 5.83317 18.2084H14.1665C17.1498 18.2084 17.7082 17.6417 17.7082 14.6667V13C17.7082 10.025 17.1498 9.45837 14.1665 9.45837H5.83317Z" fill="#494949"/>
<path d="M6.66683 14.6667C6.5585 14.6667 6.45016 14.6417 6.35016 14.6001C6.24183 14.5584 6.1585 14.5 6.07517 14.425C5.92517 14.2667 5.8335 14.0584 5.8335 13.8334C5.8335 13.7251 5.85848 13.6167 5.90015 13.5167C5.94182 13.4084 6.00017 13.3251 6.07517 13.2417C6.1585 13.1667 6.24183 13.1084 6.35016 13.0667C6.65016 12.9334 7.02516 13.0084 7.25849 13.2417C7.33349 13.3251 7.39184 13.4167 7.43351 13.5167C7.47517 13.6167 7.50016 13.7251 7.50016 13.8334C7.50016 14.0501 7.40849 14.2667 7.25849 14.425C7.10016 14.575 6.8835 14.6667 6.66683 14.6667Z" fill="#494949"/>
<path d="M9.99984 14.6667C9.78317 14.6667 9.56651 14.575 9.40818 14.425C9.25818 14.2667 9.1665 14.0583 9.1665 13.8333C9.1665 13.725 9.18316 13.6167 9.23316 13.5167C9.27483 13.4167 9.33318 13.325 9.40818 13.2417C9.59984 13.05 9.89151 12.9583 10.1582 13.0167C10.2165 13.025 10.2665 13.0417 10.3165 13.0667C10.3665 13.0833 10.4165 13.1084 10.4665 13.1417C10.5082 13.1667 10.5498 13.2083 10.5915 13.2417C10.6665 13.325 10.7248 13.4167 10.7665 13.5167C10.8082 13.6167 10.8332 13.725 10.8332 13.8333C10.8332 14.0583 10.7415 14.2667 10.5915 14.425C10.5498 14.4583 10.5082 14.4917 10.4665 14.525C10.4165 14.5583 10.3665 14.5834 10.3165 14.6C10.2665 14.625 10.2165 14.6417 10.1582 14.65C10.1082 14.6584 10.0498 14.6667 9.99984 14.6667Z" fill="#494949"/>
<path d="M13.3333 14.6667C13.1083 14.6667 12.9 14.575 12.7417 14.425C12.6667 14.3417 12.6083 14.25 12.5667 14.15C12.525 14.05 12.5 13.9417 12.5 13.8333C12.5 13.6167 12.5917 13.4 12.7417 13.2417C12.7833 13.2083 12.825 13.175 12.8667 13.1417C12.9167 13.1084 12.9667 13.0833 13.0167 13.0667C13.0667 13.0417 13.1167 13.025 13.1667 13.0167C13.4417 12.9583 13.725 13.05 13.925 13.2417C14.075 13.4 14.1667 13.6083 14.1667 13.8333C14.1667 13.9417 14.1417 14.05 14.1 14.15C14.0583 14.2583 14 14.3417 13.925 14.425C13.7667 14.575 13.55 14.6667 13.3333 14.6667Z" fill="#494949"/>
</svg>
