<svg width="20" height="21" viewBox="0 0 20 21" fill="none" xmlns="http://www.w3.org/2000/svg">
<path d="M15 9.45829C14.6583 9.45829 14.375 9.17496 14.375 8.83329V7.16663C14.375 4.54163 13.6333 2.79163 10 2.79163C6.36667 2.79163 5.625 4.54163 5.625 7.16663V8.83329C5.625 9.17496 5.34167 9.45829 5 9.45829C4.65833 9.45829 4.375 9.17496 4.375 8.83329V7.16663C4.375 4.74996 4.95833 1.54163 10 1.54163C15.0417 1.54163 15.625 4.74996 15.625 7.16663V8.83329C15.625 9.17496 15.3417 9.45829 15 9.45829Z" fill="#494949"/>
<path d="M9.99984 16.5417C8.50817 16.5417 7.2915 15.325 7.2915 13.8333C7.2915 12.3417 8.50817 11.125 9.99984 11.125C11.4915 11.125 12.7082 12.3417 12.7082 13.8333C12.7082 15.325 11.4915 16.5417 9.99984 16.5417ZM9.99984 12.375C9.19984 12.375 8.5415 13.0333 8.5415 13.8333C8.5415 14.6333 9.19984 15.2917 9.99984 15.2917C10.7998 15.2917 11.4582 14.6333 11.4582 13.8333C11.4582 13.0333 10.7998 12.375 9.99984 12.375Z" fill="#494949"/>
<path d="M14.1665 19.4584H5.83317C2.15817 19.4584 1.0415 18.3417 1.0415 14.6667V13C1.0415 9.32504 2.15817 8.20837 5.83317 8.20837H14.1665C17.8415 8.20837 18.9582 9.32504 18.9582 13V14.6667C18.9582 18.3417 17.8415 19.4584 14.1665 19.4584ZM5.83317 9.45837C2.84984 9.45837 2.2915 10.025 2.2915 13V14.6667C2.2915 17.6417 2.84984 18.2084 5.83317 18.2084H14.1665C17.1498 18.2084 17.7082 17.6417 17.7082 14.6667V13C17.7082 10.025 17.1498 9.45837 14.1665 9.45837H5.83317Z" fill="#494949"/>
</svg>
