<svg width="20" height="21" viewBox="0 0 20 21" fill="none" xmlns="http://www.w3.org/2000/svg">
<path d="M14.1665 18.2083H5.83317C2.7915 18.2083 1.0415 16.4583 1.0415 13.4166V7.58329C1.0415 4.54163 2.7915 2.79163 5.83317 2.79163H14.1665C17.2082 2.79163 18.9582 4.54163 18.9582 7.58329V13.4166C18.9582 16.4583 17.2082 18.2083 14.1665 18.2083ZM5.83317 4.04163C3.44984 4.04163 2.2915 5.19996 2.2915 7.58329V13.4166C2.2915 15.8 3.44984 16.9583 5.83317 16.9583H14.1665C16.5498 16.9583 17.7082 15.8 17.7082 13.4166V7.58329C17.7082 5.19996 16.5498 4.04163 14.1665 4.04163H5.83317Z" fill="#494949"/>
<path d="M9.99998 11.225C9.29998 11.225 8.59165 11.0083 8.04998 10.5666L5.44164 8.48331C5.17498 8.26664 5.12498 7.87497 5.34165 7.60831C5.55831 7.34164 5.94998 7.29164 6.21665 7.50831L8.82497 9.59164C9.45831 10.1 10.5333 10.1 11.1666 9.59164L13.775 7.50831C14.0416 7.29164 14.4416 7.33331 14.65 7.60831C14.8666 7.87497 14.825 8.27498 14.55 8.48331L11.9416 10.5666C11.4083 11.0083 10.7 11.225 9.99998 11.225Z" fill="#494949"/>
</svg>
