<svg width="20" height="21" viewBox="0 0 20 21" fill="none" xmlns="http://www.w3.org/2000/svg">
<path d="M10.0003 19.4583C9.44196 19.4583 8.87529 19.3166 8.37529 19.0249L3.42529 16.1666C2.42529 15.5833 1.80029 14.5083 1.80029 13.3499V7.64997C1.80029 6.49164 2.42529 5.41664 3.42529 4.8333L8.37529 1.97498C9.37529 1.39164 10.617 1.39164 11.6253 1.97498L16.5753 4.8333C17.5753 5.41664 18.2003 6.49164 18.2003 7.64997V13.3499C18.2003 14.5083 17.5753 15.5833 16.5753 16.1666L11.6253 19.0249C11.1253 19.3166 10.5586 19.4583 10.0003 19.4583ZM10.0003 2.79163C9.65863 2.79163 9.30863 2.8833 9.00029 3.0583L4.05029 5.91663C3.43363 6.27496 3.05029 6.93331 3.05029 7.64997V13.3499C3.05029 14.0583 3.43363 14.725 4.05029 15.0833L9.00029 17.9416C9.61696 18.3 10.3836 18.3 11.0003 17.9416L15.9503 15.0833C16.567 14.725 16.9503 14.0666 16.9503 13.3499V7.64997C16.9503 6.94164 16.567 6.27496 15.9503 5.91663L11.0003 3.0583C10.692 2.8833 10.342 2.79163 10.0003 2.79163Z" fill="#494949"/>
<path d="M9.99977 10.2918C8.58311 10.2918 7.43311 9.14174 7.43311 7.72508C7.43311 6.30841 8.58311 5.15845 9.99977 5.15845C11.4164 5.15845 12.5664 6.30841 12.5664 7.72508C12.5664 9.14174 11.4164 10.2918 9.99977 10.2918ZM9.99977 6.40845C9.27477 6.40845 8.68311 7.00008 8.68311 7.72508C8.68311 8.45008 9.27477 9.04176 9.99977 9.04176C10.7248 9.04176 11.3164 8.45008 11.3164 7.72508C11.3164 7.00008 10.7248 6.40845 9.99977 6.40845Z" fill="#494949"/>
<path d="M13.3332 15.0084C12.9915 15.0084 12.7082 14.725 12.7082 14.3834C12.7082 13.2334 11.4915 12.2917 9.99984 12.2917C8.50817 12.2917 7.2915 13.2334 7.2915 14.3834C7.2915 14.725 7.00817 15.0084 6.6665 15.0084C6.32484 15.0084 6.0415 14.725 6.0415 14.3834C6.0415 12.5417 7.8165 11.0417 9.99984 11.0417C12.1832 11.0417 13.9582 12.5417 13.9582 14.3834C13.9582 14.725 13.6748 15.0084 13.3332 15.0084Z" fill="#494949"/>
</svg>
