<svg width="1440" height="159" viewBox="0 0 1440 159" fill="none" xmlns="http://www.w3.org/2000/svg">
<path d="M1295.19 147.96C1177.78 139.48 1063.93 119.16 913.842 67.96C855.234 47.64 761.58 18.36 714.852 10.52C668.124 2.67999 610.704 -1.96001 565.362 2.03999C545.166 3.79999 520.614 4.27999 466.164 13.88C412.308 23.96 350.928 40.44 308.952 53.4C227.178 78.84 121.05 88.44 43.632 89.56C-127.44 92.12 -270 40.28 -270 40.28V159H1710V103.48C1710 103.48 1608.03 134.52 1499.72 144.6C1392.21 154.2 1341.92 151.32 1295.19 147.96Z" fill="#FFF4EB"/>
</svg>
