<svg width="524" height="542" viewBox="0 0 524 542" fill="none" xmlns="http://www.w3.org/2000/svg">
<path d="M428.768 111.946C402.694 50.5641 340.107 27.4526 290.726 68.666C271.442 84.7445 259.411 110.334 235.8 120.602C213.645 130.232 185.58 127.397 161.623 132.612C110.606 143.649 41.92 185.522 47.16 250.042C49.4551 278.304 67.9209 309.692 77.0489 336.136C87.5289 366.562 93.8169 404.627 121.557 422.815C169.116 454.042 226.483 428.518 269.325 403.339C292.381 389.804 305.073 381.483 329.9 386.125C352.883 390.453 373.581 405.601 396.039 387.629C412.901 374.136 414.295 346.794 428.454 330.737C444.404 312.646 460.575 311.337 468.865 284.146C478.915 251.156 464.107 230.544 454.098 201.07C444.09 171.597 441.051 140.825 428.768 111.946Z" fill="#F37335"/>
<g opacity="0.7">
<path d="M428.768 111.946C402.694 50.5641 340.107 27.4526 290.726 68.666C271.442 84.7445 259.411 110.334 235.8 120.602C213.645 130.232 185.58 127.397 161.623 132.612C110.606 143.649 41.92 185.522 47.16 250.042C49.4551 278.304 67.9209 309.692 77.0489 336.136C87.5289 366.562 93.8169 404.627 121.557 422.815C169.116 454.042 226.483 428.518 269.325 403.339C292.381 389.804 305.073 381.483 329.9 386.125C352.883 390.453 373.581 405.601 396.039 387.629C412.901 374.136 414.295 346.794 428.454 330.737C444.404 312.646 460.575 311.337 468.865 284.146C478.915 251.156 464.107 230.544 454.098 201.07C444.09 171.597 441.051 140.825 428.768 111.946Z" fill="white"/>
</g>
<path d="M230.361 474.07C319.831 474.07 392.361 469.405 392.361 463.65C392.361 457.895 319.831 453.23 230.361 453.23C140.891 453.23 68.3611 457.895 68.3611 463.65C68.3611 469.405 140.891 474.07 230.361 474.07Z" fill="#F37335"/>
<path opacity="0.8" d="M230.361 474.07C319.831 474.07 392.361 469.405 392.361 463.65C392.361 457.895 319.831 453.23 230.361 453.23C140.891 453.23 68.3611 457.895 68.3611 463.65C68.3611 469.405 140.891 474.07 230.361 474.07Z" fill="white"/>
<path d="M352.097 67.4325H189.206C177.96 67.4325 168.843 76.845 168.843 88.4558V443.503C168.843 455.114 177.96 464.526 189.206 464.526H352.097C363.343 464.526 372.459 455.114 372.459 443.503V88.4558C372.459 76.845 363.343 67.4325 352.097 67.4325Z" fill="#263238"/>
<path d="M363.404 111.037H177.887V420.922H363.404V111.037Z" fill="white" stroke="#263238" stroke-width="1.33739" stroke-miterlimit="10"/>
<path d="M299.085 236.519C314.789 220.305 314.789 194.019 299.085 177.806C283.381 161.592 257.921 161.592 242.217 177.806C226.513 194.019 226.513 220.305 242.217 236.519C257.921 252.732 283.381 252.732 299.085 236.519Z" fill="#F37335"/>
<path d="M323.444 401.435H217.869C217.631 401.436 217.396 401.389 217.176 401.297C216.956 401.204 216.756 401.067 216.587 400.894C216.419 400.721 216.285 400.515 216.194 400.289C216.103 400.062 216.056 399.819 216.056 399.574C216.054 399.328 216.1 399.084 216.191 398.856C216.281 398.628 216.415 398.421 216.584 398.247C216.752 398.073 216.953 397.935 217.173 397.842C217.394 397.748 217.63 397.701 217.869 397.702H323.444C323.682 397.702 323.917 397.751 324.136 397.845C324.356 397.939 324.555 398.077 324.723 398.251C324.89 398.425 325.023 398.631 325.113 398.859C325.203 399.086 325.248 399.329 325.247 399.574C325.247 400.068 325.057 400.541 324.719 400.89C324.381 401.239 323.922 401.435 323.444 401.435Z" fill="#F37335"/>
<path d="M326.882 272.017H214.421C212.1 272.017 210.218 273.96 210.218 276.356V290.043C210.218 292.439 212.1 294.382 214.421 294.382H326.882C329.203 294.382 331.084 292.439 331.084 290.043V276.356C331.084 273.96 329.203 272.017 326.882 272.017Z" fill="#F37335"/>
<path d="M326.882 313.847H214.421C212.1 313.847 210.218 315.79 210.218 318.186V331.873C210.218 334.27 212.1 336.212 214.421 336.212H326.882C329.203 336.212 331.084 334.27 331.084 331.873V318.186C331.084 315.79 329.203 313.847 326.882 313.847Z" fill="#F37335"/>
<path d="M290.673 227.871L278.841 220.838V215.028C280.555 212.888 281.796 210.388 282.478 207.703C282.885 207.852 283.314 207.929 283.746 207.93C285.213 207.93 286.146 203.234 286.303 199.88C288.011 196.147 285.685 193.962 285.685 193.962C285.685 193.962 286.649 192.966 287.288 188.974C287.927 184.981 285.035 186.647 282.782 182.99C280.529 179.333 278.915 175.351 271.516 175.351C269.477 175.282 267.465 175.848 265.742 176.974C264.019 178.101 262.664 179.737 261.853 181.67C260.011 181.677 258.176 181.898 256.383 182.33C254.119 182.99 253.48 190.64 255.408 193.637C256.271 195.275 256.732 197.107 256.749 198.971C256.236 198.322 255.701 198.149 255.408 199.62C254.769 202.942 257.347 207.595 257.347 207.595L258.678 207.205C259.348 210.075 260.642 212.75 262.461 215.028V220.838L250.629 227.871C249.247 228.695 248.1 229.879 247.301 231.306C246.503 232.732 246.082 234.35 246.081 235.997V240.022C253.118 245.635 261.759 248.68 270.651 248.68C279.543 248.68 288.185 245.635 295.222 240.022V235.997C295.222 234.35 294.802 232.731 294.004 231.304C293.205 229.877 292.056 228.693 290.673 227.871Z" fill="#263238"/>
<path d="M225.53 330.651C225.258 330.647 224.999 330.534 224.807 330.337C224.703 330.242 224.621 330.125 224.565 329.994C224.509 329.864 224.481 329.722 224.482 329.58C224.485 329.384 224.539 329.194 224.639 329.028L226.525 325.912L222.847 326.031C222.708 326.039 222.569 326.018 222.439 325.968C222.309 325.917 222.191 325.839 222.092 325.738C221.921 325.54 221.827 325.284 221.827 325.019C221.827 324.754 221.921 324.497 222.092 324.299C222.189 324.195 222.306 324.113 222.437 324.061C222.567 324.009 222.707 323.987 222.847 323.996L226.473 324.137L224.607 321.032C224.506 320.863 224.452 320.668 224.45 320.469C224.449 320.326 224.478 320.185 224.534 320.054C224.59 319.924 224.672 319.807 224.775 319.712C224.968 319.514 225.227 319.402 225.498 319.398C225.677 319.399 225.851 319.453 226.002 319.552C226.152 319.652 226.272 319.793 226.347 319.961L228.139 323.304L229.91 319.982C229.994 319.805 230.124 319.655 230.284 319.548C230.445 319.441 230.631 319.382 230.822 319.376C230.955 319.377 231.085 319.406 231.206 319.462C231.327 319.518 231.435 319.599 231.524 319.701C231.717 319.907 231.822 320.183 231.818 320.469C231.817 320.655 231.77 320.838 231.681 320.999L229.785 324.137L233.463 323.996C233.603 323.987 233.743 324.009 233.873 324.061C234.003 324.113 234.121 324.195 234.218 324.299C234.396 324.491 234.494 324.748 234.49 325.013C234.489 325.282 234.392 325.54 234.218 325.738C234.119 325.839 234.001 325.917 233.871 325.968C233.741 326.018 233.602 326.039 233.463 326.031L229.764 325.912L231.608 328.995C231.711 329.167 231.766 329.366 231.765 329.569C231.765 329.856 231.655 330.131 231.458 330.334C231.262 330.537 230.995 330.651 230.717 330.651C230.538 330.648 230.362 330.592 230.214 330.488C230.065 330.384 229.948 330.238 229.879 330.066L228.129 326.82L226.389 330.066C226.312 330.236 226.191 330.38 226.039 330.484C225.887 330.587 225.711 330.645 225.53 330.651Z" fill="#263238"/>
<path d="M242.528 330.651C242.257 330.647 241.998 330.534 241.805 330.337C241.702 330.242 241.62 330.125 241.564 329.994C241.508 329.864 241.479 329.722 241.48 329.58C241.483 329.384 241.538 329.194 241.637 329.028L243.524 325.912L239.856 326.031C239.716 326.037 239.576 326.015 239.445 325.964C239.313 325.914 239.193 325.837 239.091 325.738C238.952 325.59 238.859 325.402 238.825 325.199C238.791 324.996 238.816 324.786 238.899 324.599C238.981 324.411 239.117 324.253 239.288 324.145C239.458 324.038 239.656 323.986 239.856 323.996L243.471 324.137L241.606 321.032C241.504 320.863 241.45 320.668 241.449 320.469C241.448 320.326 241.476 320.185 241.532 320.054C241.588 319.924 241.671 319.807 241.774 319.712C241.966 319.514 242.225 319.402 242.497 319.398C242.675 319.399 242.85 319.453 243 319.552C243.15 319.652 243.27 319.793 243.346 319.961L245.138 323.304L246.909 319.982C246.993 319.805 247.122 319.655 247.283 319.548C247.444 319.441 247.63 319.382 247.821 319.376C247.953 319.376 248.085 319.404 248.206 319.46C248.327 319.516 248.435 319.598 248.523 319.701C248.62 319.802 248.697 319.922 248.749 320.054C248.801 320.185 248.827 320.327 248.827 320.469C248.823 320.656 248.772 320.839 248.68 320.999L246.783 324.137L250.472 324.018C250.61 324.008 250.748 324.031 250.877 324.083C251.006 324.135 251.122 324.217 251.216 324.321C251.395 324.513 251.493 324.769 251.489 325.035C251.488 325.303 251.391 325.562 251.216 325.76C251.119 325.861 251.003 325.939 250.875 325.989C250.746 326.039 250.609 326.061 250.472 326.052L246.762 325.933L248.607 329.017C248.71 329.189 248.764 329.388 248.764 329.59C248.764 329.877 248.653 330.153 248.457 330.355C248.26 330.558 247.994 330.672 247.716 330.672C247.536 330.67 247.361 330.613 247.212 330.509C247.063 330.406 246.947 330.259 246.877 330.088L245.127 326.842L243.388 330.088C243.308 330.254 243.185 330.394 243.034 330.493C242.882 330.592 242.708 330.647 242.528 330.651Z" fill="#263238"/>
<path d="M259.537 330.651C259.262 330.649 258.999 330.537 258.804 330.337C258.701 330.242 258.618 330.125 258.562 329.994C258.506 329.864 258.478 329.722 258.479 329.58C258.482 329.384 258.536 329.194 258.636 329.028L260.522 325.912L256.854 326.031C256.657 326.039 256.461 325.986 256.293 325.879C256.125 325.772 255.991 325.616 255.909 325.43C255.827 325.244 255.8 325.038 255.832 324.836C255.864 324.635 255.954 324.448 256.089 324.299C256.188 324.195 256.308 324.114 256.44 324.062C256.572 324.01 256.713 323.987 256.854 323.996L260.47 324.137L258.605 321.032C258.503 320.863 258.449 320.668 258.447 320.469C258.451 320.327 258.481 320.187 258.537 320.057C258.593 319.927 258.673 319.81 258.772 319.712C258.967 319.512 259.231 319.399 259.506 319.398C259.683 319.401 259.855 319.456 260.003 319.555C260.151 319.655 260.27 319.795 260.344 319.961L262.136 323.304L263.907 319.982C263.991 319.805 264.121 319.655 264.282 319.548C264.442 319.441 264.628 319.382 264.819 319.376C264.952 319.376 265.083 319.404 265.204 319.46C265.325 319.516 265.433 319.598 265.521 319.701C265.618 319.802 265.695 319.922 265.747 320.054C265.8 320.185 265.826 320.327 265.825 320.469C265.822 320.656 265.771 320.839 265.679 320.999L263.782 324.137L267.471 323.996C267.606 323.982 267.743 323.999 267.872 324.044C268.001 324.089 268.12 324.162 268.219 324.259C268.318 324.355 268.396 324.472 268.448 324.603C268.5 324.733 268.524 324.873 268.519 325.013C268.521 325.28 268.428 325.538 268.257 325.738C268.158 325.839 268.04 325.917 267.91 325.968C267.78 326.018 267.641 326.039 267.502 326.031L263.803 325.912L265.637 328.995C265.74 329.167 265.794 329.366 265.794 329.569C265.791 329.711 265.76 329.851 265.704 329.981C265.649 330.111 265.569 330.228 265.469 330.326C265.378 330.427 265.268 330.508 265.145 330.564C265.023 330.62 264.89 330.649 264.756 330.651C264.578 330.648 264.405 330.59 264.258 330.487C264.11 330.383 263.996 330.237 263.928 330.066L262.168 326.82L260.428 330.066C260.35 330.242 260.224 330.39 260.066 330.494C259.908 330.597 259.724 330.652 259.537 330.651Z" fill="#263238"/>
<path d="M276.536 330.651C276.261 330.649 275.997 330.537 275.802 330.337C275.605 330.137 275.492 329.865 275.488 329.58C275.484 329.385 275.535 329.193 275.634 329.028L277.521 325.912L273.853 326.031C273.713 326.037 273.573 326.015 273.442 325.964C273.31 325.914 273.19 325.837 273.088 325.738C272.917 325.54 272.823 325.284 272.823 325.019C272.823 324.754 272.917 324.497 273.088 324.299C273.189 324.198 273.309 324.12 273.44 324.067C273.572 324.015 273.712 323.991 273.853 323.996L277.479 324.137L275.624 321.032C275.522 320.863 275.468 320.668 275.467 320.469C275.47 320.327 275.5 320.187 275.556 320.057C275.612 319.927 275.692 319.81 275.792 319.712C275.987 319.512 276.25 319.399 276.525 319.398C276.704 319.399 276.878 319.453 277.029 319.552C277.179 319.652 277.299 319.793 277.374 319.961L279.156 323.304L280.927 319.982C281.011 319.805 281.14 319.655 281.301 319.548C281.462 319.441 281.648 319.382 281.839 319.376C281.971 319.376 282.103 319.404 282.224 319.46C282.345 319.516 282.453 319.598 282.541 319.701C282.638 319.802 282.715 319.922 282.767 320.054C282.819 320.185 282.846 320.327 282.845 320.469C282.841 320.656 282.79 320.839 282.698 320.999L280.801 324.137L284.49 323.996C284.626 323.982 284.763 323.999 284.892 324.044C285.021 324.089 285.139 324.162 285.238 324.259C285.338 324.355 285.416 324.472 285.467 324.603C285.519 324.733 285.543 324.873 285.538 325.013C285.54 325.28 285.447 325.538 285.276 325.738C285.177 325.839 285.059 325.917 284.929 325.968C284.799 326.018 284.66 326.039 284.521 326.031L280.822 325.912L282.656 328.995C282.759 329.167 282.814 329.366 282.813 329.569C282.814 329.712 282.786 329.853 282.73 329.983C282.674 330.114 282.591 330.231 282.488 330.326C282.397 330.427 282.287 330.508 282.164 330.564C282.042 330.62 281.91 330.649 281.776 330.651C281.598 330.648 281.424 330.59 281.277 330.487C281.13 330.383 281.015 330.237 280.948 330.066L279.187 326.82L277.447 330.066C277.368 330.245 277.239 330.396 277.077 330.5C276.914 330.604 276.726 330.656 276.536 330.651Z" fill="#263238"/>
<path d="M293.534 330.651C293.259 330.649 292.996 330.537 292.801 330.337C292.638 330.167 292.535 329.947 292.506 329.71C292.478 329.473 292.526 329.233 292.643 329.028L294.519 325.912L290.851 326.031C290.711 326.037 290.572 326.015 290.44 325.964C290.309 325.914 290.188 325.837 290.086 325.738C289.915 325.54 289.821 325.284 289.821 325.019C289.821 324.754 289.915 324.498 290.086 324.299C290.188 324.198 290.308 324.12 290.439 324.067C290.57 324.015 290.711 323.991 290.851 323.996L294.477 324.137L292.612 321.032C292.511 320.863 292.456 320.668 292.455 320.469C292.459 320.184 292.572 319.911 292.769 319.712C292.964 319.512 293.228 319.399 293.503 319.398C293.681 319.399 293.856 319.453 294.006 319.552C294.157 319.652 294.276 319.793 294.352 319.961L296.133 323.304L297.904 319.982C297.988 319.805 298.118 319.655 298.279 319.548C298.439 319.441 298.625 319.382 298.816 319.376C298.95 319.376 299.083 319.404 299.206 319.46C299.329 319.516 299.439 319.598 299.529 319.701C299.721 319.907 299.827 320.183 299.822 320.469C299.819 320.656 299.768 320.839 299.676 320.999L297.779 324.137L301.468 323.996C301.603 323.982 301.74 323.999 301.869 324.044C301.998 324.089 302.117 324.162 302.216 324.259C302.315 324.355 302.393 324.472 302.445 324.603C302.497 324.733 302.521 324.873 302.516 325.013C302.518 325.28 302.425 325.538 302.254 325.738C302.155 325.839 302.037 325.917 301.907 325.968C301.777 326.018 301.638 326.039 301.499 326.031L297.8 325.912L299.634 328.995C299.737 329.167 299.791 329.366 299.791 329.569C299.792 329.712 299.763 329.853 299.707 329.983C299.651 330.114 299.569 330.231 299.466 330.326C299.375 330.427 299.265 330.508 299.142 330.564C299.02 330.62 298.887 330.649 298.753 330.651C298.575 330.648 298.402 330.59 298.255 330.487C298.107 330.383 297.993 330.237 297.925 330.066L296.165 326.82L294.425 330.066C294.347 330.242 294.221 330.39 294.063 330.494C293.905 330.597 293.721 330.652 293.534 330.651Z" fill="#263238"/>
<path d="M310.533 330.651C310.262 330.647 310.002 330.534 309.81 330.337C309.707 330.242 309.624 330.125 309.568 329.994C309.512 329.864 309.484 329.722 309.485 329.58C309.488 329.384 309.543 329.194 309.642 329.028L311.518 325.912L307.85 326.031C307.715 326.041 307.58 326.022 307.452 325.976C307.324 325.929 307.208 325.856 307.109 325.76C307.011 325.665 306.932 325.549 306.879 325.42C306.827 325.292 306.8 325.153 306.802 325.013C306.801 324.881 306.826 324.75 306.875 324.627C306.923 324.505 306.995 324.393 307.085 324.299C307.182 324.195 307.299 324.113 307.43 324.061C307.56 324.009 307.7 323.987 307.84 323.996L311.466 324.137L309.6 321.032C309.499 320.863 309.444 320.668 309.443 320.469C309.447 320.184 309.56 319.911 309.757 319.712C309.953 319.512 310.216 319.399 310.491 319.398C310.67 319.399 310.844 319.453 310.994 319.552C311.145 319.652 311.265 319.793 311.34 319.961L313.122 323.304L314.903 319.982C314.986 319.807 315.114 319.657 315.273 319.551C315.431 319.444 315.615 319.384 315.804 319.376C315.939 319.376 316.072 319.404 316.194 319.46C316.317 319.516 316.427 319.598 316.517 319.701C316.709 319.907 316.815 320.183 316.81 320.469C316.81 320.655 316.763 320.838 316.674 320.999L314.777 324.137L318.456 323.996C318.595 323.987 318.735 324.009 318.866 324.061C318.996 324.113 319.114 324.195 319.21 324.299C319.389 324.491 319.487 324.748 319.483 325.013C319.482 325.282 319.385 325.54 319.21 325.738C319.112 325.839 318.993 325.917 318.863 325.968C318.733 326.018 318.594 326.039 318.456 326.031L314.756 325.912L316.59 328.995C316.694 329.167 316.748 329.366 316.748 329.569C316.744 329.854 316.631 330.126 316.433 330.326C316.242 330.527 315.983 330.644 315.71 330.651C315.532 330.648 315.358 330.59 315.211 330.487C315.064 330.383 314.95 330.237 314.882 330.066L313.122 326.82L311.382 330.066C311.306 330.235 311.187 330.379 311.037 330.482C310.888 330.586 310.713 330.644 310.533 330.651Z" fill="#263238"/>
<g style="mix-blend-mode:multiply">
<path d="M363.404 111.448H177.887V123.448H363.404V111.448Z" fill="#F37335"/>
</g>
<path d="M290.82 89.343H250.472C249.744 89.343 249.045 89.0443 248.531 88.5127C248.016 87.9811 247.726 87.26 247.726 86.5082C247.726 85.7563 248.016 85.0353 248.531 84.5036C249.045 83.972 249.744 83.6733 250.472 83.6733H290.82C291.548 83.6733 292.247 83.972 292.762 84.5036C293.277 85.0353 293.566 85.7563 293.566 86.5082C293.566 87.26 293.277 87.9811 292.762 88.5127C292.247 89.0443 291.548 89.343 290.82 89.343Z" fill="#F37335" stroke="#263238" stroke-width="1.33739" stroke-linecap="round" stroke-linejoin="round"/>
<path d="M281.65 438.429C281.652 436.181 281.008 433.983 279.8 432.113C278.592 430.243 276.873 428.785 274.862 427.924C272.851 427.063 270.637 426.837 268.502 427.275C266.366 427.713 264.405 428.795 262.865 430.384C261.326 431.974 260.277 433.999 259.853 436.204C259.429 438.409 259.648 440.694 260.482 442.771C261.316 444.847 262.728 446.621 264.539 447.869C266.35 449.116 268.479 449.781 270.657 449.779C273.571 449.776 276.366 448.579 278.427 446.451C280.488 444.323 281.647 441.438 281.65 438.429Z" fill="#F37335"/>
<path d="M276.232 432.672H265.081V444.185H276.232V432.672Z" fill="#F37335" stroke="#263238" stroke-width="1.33739" stroke-linecap="round" stroke-linejoin="round"/>
<path d="M403.48 307.788C403.48 307.788 388.871 269.464 401.877 264.908C415.417 260.158 414.819 285.466 414.295 297.801C413.195 324.159 410.376 329.06 408.269 322.622L403.48 307.788ZM399.089 337.684C403.103 343.094 404.235 337.489 396.993 312.181C393.597 300.279 386.219 276.204 374.901 285.239C364.033 293.895 389.898 325.273 389.898 325.273L399.089 337.684ZM391.334 359.648C395.159 363.154 395.232 358.729 386.146 340.454C381.881 331.895 372.857 314.572 365.469 323.142C358.374 331.408 382.551 351.501 382.551 351.501L391.334 359.648ZM382.95 385.768C386.775 389.284 386.848 384.848 377.762 366.584C373.497 358.025 364.473 340.692 357.085 349.272C350.032 357.56 374.136 377.653 374.136 377.653L382.95 385.768ZM407.159 332.598C401.038 335.065 405.901 337.749 431.462 337.673C443.451 337.673 467.932 337.11 462.713 323.358C457.714 310.147 421.307 326.972 421.307 326.972L407.159 332.598ZM400.189 350.17C393.713 351.328 397.968 354.963 423.036 360.135C434.784 362.57 458.877 367.06 456.415 352.561C454.057 338.582 415.134 347.606 415.134 347.606L400.189 350.17ZM392.392 371.626C386.88 372.448 390.401 375.619 411.476 380.596C421.359 382.933 441.638 387.315 439.877 374.948C438.2 363.046 405.083 369.776 405.083 369.776L392.392 371.626ZM386.471 391.502C381.074 392.92 384.899 395.69 406.383 398.33C416.444 399.563 437.058 401.706 434.05 389.598C431.147 377.977 398.911 388.267 398.911 388.267L386.471 391.502ZM418.058 311.034C414.914 318.305 421.443 317.201 443.639 297.206C454.036 287.825 474.891 268.198 458.374 258.427C442.518 249.035 425.467 294.35 425.467 294.35L418.058 311.034ZM387.288 417.395C383.966 419.396 387.226 420.175 402.463 417.038C409.611 415.577 424.147 412.331 419.231 405.925C414.474 399.758 394.981 412.742 394.981 412.742L387.288 417.395Z" fill="#F37335"/>
<path opacity="0.3" d="M403.48 307.788C403.48 307.788 388.871 269.464 401.877 264.908C415.417 260.158 414.819 285.466 414.295 297.801C413.195 324.159 410.376 329.06 408.269 322.622L403.48 307.788ZM399.089 337.684C403.103 343.094 404.235 337.489 396.993 312.181C393.597 300.279 386.219 276.204 374.901 285.239C364.033 293.895 389.898 325.273 389.898 325.273L399.089 337.684ZM391.334 359.648C395.159 363.154 395.232 358.729 386.146 340.454C381.881 331.895 372.857 314.572 365.469 323.142C358.374 331.408 382.551 351.501 382.551 351.501L391.334 359.648ZM382.95 385.768C386.775 389.284 386.848 384.848 377.762 366.584C373.497 358.025 364.473 340.692 357.085 349.272C350.032 357.56 374.136 377.653 374.136 377.653L382.95 385.768ZM407.159 332.598C401.038 335.065 405.901 337.749 431.462 337.673C443.451 337.673 467.932 337.11 462.713 323.358C457.714 310.147 421.307 326.972 421.307 326.972L407.159 332.598ZM400.189 350.17C393.713 351.328 397.968 354.963 423.036 360.135C434.784 362.57 458.877 367.06 456.415 352.561C454.057 338.582 415.134 347.606 415.134 347.606L400.189 350.17ZM392.392 371.626C386.88 372.448 390.401 375.619 411.476 380.596C421.359 382.933 441.638 387.315 439.877 374.948C438.2 363.046 405.083 369.776 405.083 369.776L392.392 371.626ZM386.471 391.502C381.074 392.92 384.899 395.69 406.383 398.33C416.444 399.563 437.058 401.706 434.05 389.598C431.147 377.977 398.911 388.267 398.911 388.267L386.471 391.502ZM418.058 311.034C414.914 318.305 421.443 317.201 443.639 297.206C454.036 287.825 474.891 268.198 458.374 258.427C442.518 249.035 425.467 294.35 425.467 294.35L418.058 311.034ZM387.288 417.395C383.966 419.396 387.226 420.175 402.463 417.038C409.611 415.577 424.147 412.331 419.231 405.925C414.474 399.758 394.981 412.742 394.981 412.742L387.288 417.395Z" fill="white"/>
<path d="M409.925 325.63L407.379 281.885ZM401.866 340.064L385.769 302.443ZM443.409 329.125L404.832 334.838ZM393.524 360.341L372.637 332.674ZM397.192 351.858L425.97 353.351ZM390.38 373.076L412.388 375.326ZM385.067 386.558L374.136 369.581ZM383.809 392.552L409.684 392.801ZM378.569 442.67C378.742 442.656 378.903 442.572 379.017 442.437C379.131 442.301 379.188 442.124 379.177 441.945C377.532 416.432 387.089 374.645 402.421 340.345C412.22 318.424 450.63 275.339 451.038 274.906C451.162 274.778 451.231 274.605 451.231 274.425C451.231 274.244 451.162 274.071 451.038 273.943C450.978 273.88 450.906 273.83 450.827 273.796C450.748 273.762 450.663 273.745 450.577 273.745C450.491 273.745 450.406 273.762 450.327 273.796C450.248 273.83 450.176 273.88 450.116 273.943C449.728 274.376 411.162 317.623 401.279 339.739C385.664 374.872 376.232 415.901 377.909 442.032C377.922 442.204 377.997 442.365 378.119 442.483C378.241 442.601 378.402 442.668 378.569 442.67ZM409.915 326.301C410.088 326.29 410.25 326.209 410.366 326.075C410.482 325.941 410.542 325.766 410.533 325.587L408.028 281.82C408.024 281.731 408.003 281.644 407.966 281.563C407.929 281.482 407.877 281.41 407.812 281.351C407.748 281.291 407.673 281.246 407.591 281.217C407.509 281.188 407.423 281.176 407.337 281.182C407.163 281.193 407.001 281.274 406.886 281.408C406.77 281.541 406.71 281.717 406.718 281.896L409.265 325.641C409.273 325.813 409.345 325.976 409.466 326.094C409.587 326.213 409.748 326.28 409.915 326.279V326.301ZM402.097 340.681C402.254 340.607 402.377 340.473 402.439 340.308C402.502 340.142 402.499 339.957 402.432 339.794L386.324 302.172C386.255 302.009 386.125 301.88 385.964 301.816C385.803 301.751 385.623 301.754 385.465 301.826C385.306 301.898 385.182 302.032 385.119 302.198C385.056 302.364 385.06 302.55 385.129 302.713L401.227 340.335C401.277 340.455 401.361 340.558 401.467 340.631C401.573 340.704 401.697 340.744 401.824 340.746C401.933 340.752 402.041 340.729 402.139 340.681H402.097ZM404.884 335.487L443.44 329.796C443.533 329.794 443.625 329.772 443.709 329.73C443.793 329.689 443.868 329.63 443.929 329.557C443.989 329.484 444.034 329.399 444.06 329.306C444.086 329.214 444.093 329.117 444.081 329.022C444.068 328.927 444.036 328.835 443.987 328.754C443.937 328.672 443.872 328.602 443.795 328.548C443.717 328.495 443.63 328.459 443.538 328.443C443.446 328.426 443.352 328.43 443.262 328.454L404.706 334.145C404.534 334.157 404.373 334.239 404.259 334.373C404.145 334.507 404.087 334.682 404.098 334.86C404.109 335.038 404.189 335.204 404.318 335.321C404.448 335.439 404.618 335.499 404.79 335.487H404.884ZM393.891 360.882C394.028 360.771 394.117 360.608 394.138 360.43C394.16 360.252 394.112 360.072 394.006 359.93L373.109 332.209C373.002 332.065 372.844 331.972 372.67 331.948C372.496 331.925 372.32 331.974 372.181 332.084C372.042 332.195 371.952 332.358 371.929 332.537C371.906 332.717 371.954 332.898 372.061 333.042L393 360.806C393.061 360.887 393.139 360.952 393.228 360.997C393.317 361.042 393.414 361.066 393.513 361.066C393.67 361.058 393.819 360.992 393.933 360.882H393.891ZM426.546 353.383C426.552 353.204 426.489 353.03 426.372 352.899C426.254 352.767 426.091 352.689 425.918 352.68L397.192 351.176C397.031 351.188 396.879 351.26 396.766 351.379C396.652 351.499 396.586 351.657 396.578 351.824C396.57 351.99 396.622 352.154 396.724 352.284C396.825 352.414 396.969 352.501 397.129 352.529L425.907 354.033C426.081 354.039 426.249 353.974 426.377 353.852C426.504 353.731 426.58 353.562 426.588 353.383H426.546ZM412.996 375.391C413.006 375.302 412.999 375.212 412.975 375.126C412.95 375.04 412.91 374.96 412.855 374.89C412.8 374.821 412.733 374.763 412.656 374.721C412.579 374.679 412.495 374.653 412.409 374.645L390.401 372.405C390.316 372.396 390.229 372.405 390.147 372.43C390.065 372.456 389.989 372.498 389.922 372.555C389.856 372.611 389.801 372.68 389.761 372.759C389.721 372.837 389.696 372.923 389.688 373.011C389.674 373.188 389.727 373.365 389.836 373.502C389.946 373.64 390.104 373.728 390.275 373.747L412.283 375.997H412.346C412.515 376.009 412.682 375.953 412.811 375.84C412.94 375.726 413.022 375.566 413.038 375.391H412.996ZM385.381 387.12C385.527 387.021 385.628 386.866 385.663 386.69C385.699 386.513 385.665 386.33 385.57 386.179L374.691 369.202C374.592 369.056 374.441 368.955 374.271 368.921C374.101 368.887 373.925 368.922 373.78 369.018C373.634 369.118 373.533 369.272 373.497 369.449C373.462 369.625 373.496 369.809 373.591 369.96L384.469 386.936C384.531 387.029 384.614 387.105 384.711 387.158C384.808 387.211 384.915 387.238 385.025 387.239C385.167 387.247 385.307 387.205 385.423 387.12H385.381ZM410.344 392.801C410.342 392.623 410.273 392.452 410.152 392.325C410.031 392.199 409.867 392.125 409.695 392.119L383.819 391.87C383.647 391.87 383.482 391.941 383.36 392.067C383.238 392.193 383.17 392.363 383.17 392.541C383.167 392.63 383.182 392.719 383.213 392.803C383.245 392.886 383.292 392.962 383.353 393.026C383.414 393.089 383.486 393.14 383.567 393.174C383.647 393.208 383.733 393.224 383.819 393.223L409.695 393.472C409.783 393.476 409.871 393.462 409.955 393.43C410.038 393.399 410.114 393.35 410.178 393.288C410.243 393.225 410.294 393.15 410.33 393.066C410.366 392.982 410.385 392.892 410.386 392.801H410.344ZM375.624 432.748C375.677 432.629 380.089 420.078 393.356 417.081C393.527 417.042 393.676 416.935 393.77 416.783C393.865 416.63 393.897 416.446 393.859 416.269C393.817 416.096 393.712 415.947 393.565 415.852C393.419 415.757 393.243 415.725 393.073 415.761C379.083 418.92 374.44 432.175 374.387 432.305C374.334 432.475 374.346 432.661 374.422 432.823C374.499 432.984 374.633 433.109 374.796 433.17H375.006C375.145 433.183 375.285 433.148 375.404 433.072C375.523 432.996 375.615 432.883 375.666 432.748H375.624ZM378.569 442.67C378.742 442.656 378.903 442.572 379.017 442.437C379.131 442.301 379.188 442.124 379.177 441.945C377.532 416.432 387.089 374.645 402.421 340.345C412.22 318.424 450.63 275.339 451.038 274.906C451.162 274.778 451.231 274.605 451.231 274.425C451.231 274.244 451.162 274.071 451.038 273.943C450.978 273.88 450.906 273.83 450.827 273.796C450.748 273.762 450.663 273.745 450.577 273.745C450.491 273.745 450.406 273.762 450.327 273.796C450.248 273.83 450.176 273.88 450.116 273.943C449.728 274.376 411.162 317.623 401.279 339.739C385.664 374.872 376.232 415.901 377.909 442.032C377.922 442.204 377.997 442.365 378.119 442.483C378.241 442.601 378.402 442.668 378.569 442.67ZM409.915 326.301C410.088 326.29 410.25 326.209 410.366 326.075C410.482 325.941 410.542 325.766 410.533 325.587L408.028 281.82C408.024 281.731 408.003 281.644 407.966 281.563C407.929 281.482 407.877 281.41 407.812 281.351C407.748 281.291 407.673 281.246 407.591 281.217C407.509 281.188 407.423 281.176 407.337 281.182C407.163 281.193 407.001 281.274 406.886 281.408C406.77 281.541 406.71 281.717 406.718 281.896L409.265 325.641C409.273 325.813 409.345 325.976 409.466 326.094C409.587 326.213 409.748 326.28 409.915 326.279V326.301ZM402.097 340.681C402.254 340.607 402.377 340.473 402.439 340.308C402.502 340.142 402.499 339.957 402.432 339.794L386.324 302.172C386.255 302.009 386.125 301.88 385.964 301.816C385.803 301.751 385.623 301.754 385.465 301.826C385.306 301.898 385.182 302.032 385.119 302.198C385.056 302.364 385.06 302.55 385.129 302.713L401.227 340.335C401.277 340.455 401.361 340.558 401.467 340.631C401.573 340.704 401.697 340.744 401.824 340.746C401.933 340.752 402.041 340.729 402.139 340.681H402.097ZM404.884 335.487L443.44 329.796C443.533 329.794 443.625 329.772 443.709 329.73C443.793 329.689 443.868 329.63 443.929 329.557C443.989 329.484 444.034 329.399 444.06 329.306C444.086 329.214 444.093 329.117 444.081 329.022C444.068 328.927 444.036 328.835 443.987 328.754C443.937 328.672 443.872 328.602 443.795 328.548C443.717 328.495 443.63 328.459 443.538 328.443C443.446 328.426 443.352 328.43 443.262 328.454L404.706 334.145C404.534 334.157 404.373 334.239 404.259 334.373C404.145 334.507 404.087 334.682 404.098 334.86C404.109 335.038 404.189 335.204 404.318 335.321C404.448 335.439 404.618 335.499 404.79 335.487H404.884ZM393.891 360.882C394.028 360.771 394.117 360.608 394.138 360.43C394.16 360.252 394.112 360.072 394.006 359.93L373.109 332.209C373.056 332.138 372.99 332.078 372.915 332.033C372.839 331.989 372.756 331.96 372.67 331.948C372.584 331.937 372.497 331.943 372.413 331.966C372.329 331.989 372.25 332.03 372.181 332.084C372.113 332.139 372.055 332.207 372.012 332.285C371.968 332.363 371.94 332.448 371.929 332.537C371.918 332.626 371.924 332.717 371.946 332.803C371.969 332.89 372.008 332.971 372.061 333.042L393 360.806C393.061 360.887 393.139 360.952 393.228 360.997C393.317 361.042 393.414 361.066 393.513 361.066C393.67 361.058 393.819 360.992 393.933 360.882H393.891ZM426.546 353.383C426.552 353.204 426.489 353.03 426.372 352.899C426.254 352.767 426.091 352.689 425.918 352.68L397.192 351.176C397.031 351.188 396.879 351.26 396.766 351.379C396.652 351.499 396.586 351.657 396.578 351.824C396.57 351.99 396.622 352.154 396.724 352.284C396.825 352.414 396.969 352.501 397.129 352.529L425.907 354.033C426.081 354.039 426.249 353.974 426.377 353.852C426.504 353.731 426.58 353.562 426.588 353.383H426.546ZM412.996 375.391C413.006 375.302 412.999 375.212 412.975 375.126C412.95 375.04 412.91 374.96 412.855 374.89C412.8 374.821 412.733 374.763 412.656 374.721C412.579 374.679 412.495 374.653 412.409 374.645L390.401 372.405C390.316 372.396 390.229 372.405 390.147 372.43C390.065 372.456 389.989 372.498 389.922 372.555C389.856 372.611 389.801 372.68 389.761 372.759C389.721 372.837 389.696 372.923 389.688 373.011C389.674 373.188 389.727 373.365 389.836 373.502C389.946 373.64 390.104 373.728 390.275 373.747L412.283 375.997H412.346C412.515 376.009 412.682 375.953 412.811 375.84C412.94 375.726 413.022 375.566 413.038 375.391H412.996ZM385.381 387.12C385.527 387.021 385.628 386.866 385.663 386.69C385.699 386.513 385.665 386.33 385.57 386.179L374.691 369.202C374.592 369.056 374.441 368.955 374.271 368.921C374.101 368.887 373.925 368.922 373.78 369.018C373.634 369.118 373.533 369.272 373.497 369.449C373.462 369.625 373.496 369.809 373.591 369.96L384.469 386.936C384.531 387.029 384.614 387.105 384.711 387.158C384.808 387.211 384.915 387.238 385.025 387.239C385.167 387.247 385.307 387.205 385.423 387.12H385.381ZM410.344 392.801C410.342 392.623 410.273 392.452 410.152 392.325C410.031 392.199 409.867 392.125 409.695 392.119L383.819 391.87C383.647 391.87 383.482 391.941 383.36 392.067C383.238 392.193 383.17 392.363 383.17 392.541C383.167 392.63 383.182 392.719 383.213 392.803C383.245 392.886 383.292 392.962 383.353 393.026C383.414 393.089 383.486 393.14 383.567 393.174C383.647 393.208 383.733 393.224 383.819 393.223L409.695 393.472C409.783 393.476 409.871 393.462 409.955 393.43C410.038 393.399 410.114 393.35 410.178 393.288C410.243 393.225 410.294 393.15 410.33 393.066C410.366 392.982 410.385 392.892 410.386 392.801H410.344ZM375.624 432.748C375.677 432.629 380.089 420.078 393.356 417.081C393.527 417.042 393.676 416.935 393.77 416.783C393.865 416.63 393.897 416.446 393.859 416.269C393.817 416.096 393.712 415.947 393.565 415.852C393.419 415.757 393.243 415.725 393.073 415.761C379.083 418.92 374.44 432.175 374.387 432.305C374.334 432.475 374.346 432.661 374.422 432.823C374.499 432.984 374.633 433.109 374.796 433.17H375.006C375.145 433.183 375.285 433.148 375.404 433.072C375.523 432.996 375.615 432.883 375.666 432.748H375.624Z" fill="#F37335"/>
<path opacity="0.2" d="M409.925 325.63L407.379 281.885ZM401.866 340.064L385.769 302.443ZM443.409 329.125L404.832 334.838ZM393.524 360.341L372.637 332.674ZM397.192 351.858L425.97 353.351ZM390.38 373.076L412.388 375.326ZM385.067 386.558L374.136 369.581ZM383.809 392.552L409.684 392.801ZM378.569 442.67C378.742 442.656 378.903 442.572 379.017 442.437C379.131 442.301 379.188 442.124 379.177 441.945C377.532 416.432 387.089 374.645 402.421 340.345C412.22 318.424 450.63 275.339 451.038 274.906C451.162 274.778 451.231 274.605 451.231 274.425C451.231 274.244 451.162 274.071 451.038 273.943C450.978 273.88 450.906 273.83 450.827 273.796C450.748 273.762 450.663 273.745 450.577 273.745C450.491 273.745 450.406 273.762 450.327 273.796C450.248 273.83 450.176 273.88 450.116 273.943C449.728 274.376 411.162 317.623 401.279 339.739C385.664 374.872 376.232 415.901 377.909 442.032C377.922 442.204 377.997 442.365 378.119 442.483C378.241 442.601 378.402 442.668 378.569 442.67ZM409.915 326.301C410.088 326.29 410.25 326.209 410.366 326.075C410.482 325.941 410.542 325.766 410.533 325.587L408.028 281.82C408.024 281.731 408.003 281.644 407.966 281.563C407.929 281.482 407.877 281.41 407.812 281.351C407.748 281.291 407.673 281.246 407.591 281.217C407.509 281.188 407.423 281.176 407.337 281.182C407.163 281.193 407.001 281.274 406.886 281.408C406.77 281.541 406.71 281.717 406.718 281.896L409.265 325.641C409.273 325.813 409.345 325.976 409.466 326.094C409.587 326.213 409.748 326.28 409.915 326.279V326.301ZM402.097 340.681C402.254 340.607 402.377 340.473 402.439 340.308C402.502 340.142 402.499 339.957 402.432 339.794L386.324 302.172C386.255 302.009 386.125 301.88 385.964 301.816C385.803 301.751 385.623 301.754 385.465 301.826C385.306 301.898 385.182 302.032 385.119 302.198C385.056 302.364 385.06 302.55 385.129 302.713L401.227 340.335C401.277 340.455 401.361 340.558 401.467 340.631C401.573 340.704 401.697 340.744 401.824 340.746C401.933 340.752 402.041 340.729 402.139 340.681H402.097ZM404.884 335.487L443.44 329.796C443.533 329.794 443.625 329.772 443.709 329.73C443.793 329.689 443.868 329.63 443.929 329.557C443.989 329.484 444.034 329.399 444.06 329.306C444.086 329.214 444.093 329.117 444.081 329.022C444.068 328.927 444.036 328.835 443.987 328.754C443.937 328.672 443.872 328.602 443.795 328.548C443.717 328.495 443.63 328.459 443.538 328.443C443.446 328.426 443.352 328.43 443.262 328.454L404.706 334.145C404.534 334.157 404.373 334.239 404.259 334.373C404.145 334.507 404.087 334.682 404.098 334.86C404.109 335.038 404.189 335.204 404.318 335.321C404.448 335.439 404.618 335.499 404.79 335.487H404.884ZM393.891 360.882C394.028 360.771 394.117 360.608 394.138 360.43C394.16 360.252 394.112 360.072 394.006 359.93L373.109 332.209C373.002 332.065 372.844 331.972 372.67 331.948C372.496 331.925 372.32 331.974 372.181 332.084C372.042 332.195 371.952 332.358 371.929 332.537C371.906 332.717 371.954 332.898 372.061 333.042L393 360.806C393.061 360.887 393.139 360.952 393.228 360.997C393.317 361.042 393.414 361.066 393.513 361.066C393.67 361.058 393.819 360.992 393.933 360.882H393.891ZM426.546 353.383C426.552 353.204 426.489 353.03 426.372 352.899C426.254 352.767 426.091 352.689 425.918 352.68L397.192 351.176C397.031 351.188 396.879 351.26 396.766 351.379C396.652 351.499 396.586 351.657 396.578 351.824C396.57 351.99 396.622 352.154 396.724 352.284C396.825 352.414 396.969 352.501 397.129 352.529L425.907 354.033C426.081 354.039 426.249 353.974 426.377 353.852C426.504 353.731 426.58 353.562 426.588 353.383H426.546ZM412.996 375.391C413.006 375.302 412.999 375.212 412.975 375.126C412.95 375.04 412.91 374.96 412.855 374.89C412.8 374.821 412.733 374.763 412.656 374.721C412.579 374.679 412.495 374.653 412.409 374.645L390.401 372.405C390.316 372.396 390.229 372.405 390.147 372.43C390.065 372.456 389.989 372.498 389.922 372.555C389.856 372.611 389.801 372.68 389.761 372.759C389.721 372.837 389.696 372.923 389.688 373.011C389.674 373.188 389.727 373.365 389.836 373.502C389.946 373.64 390.104 373.728 390.275 373.747L412.283 375.997H412.346C412.515 376.009 412.682 375.953 412.811 375.84C412.94 375.726 413.022 375.566 413.038 375.391H412.996ZM385.381 387.12C385.527 387.021 385.628 386.866 385.663 386.69C385.699 386.513 385.665 386.33 385.57 386.179L374.691 369.202C374.592 369.056 374.441 368.955 374.271 368.921C374.101 368.887 373.925 368.922 373.78 369.018C373.634 369.118 373.533 369.272 373.497 369.449C373.462 369.625 373.496 369.809 373.591 369.96L384.469 386.936C384.531 387.029 384.614 387.105 384.711 387.158C384.808 387.211 384.915 387.238 385.025 387.239C385.167 387.247 385.307 387.205 385.423 387.12H385.381ZM410.344 392.801C410.342 392.623 410.273 392.452 410.152 392.325C410.031 392.199 409.867 392.125 409.695 392.119L383.819 391.87C383.647 391.87 383.482 391.941 383.36 392.067C383.238 392.193 383.17 392.363 383.17 392.541C383.167 392.63 383.182 392.719 383.213 392.803C383.245 392.886 383.292 392.962 383.353 393.026C383.414 393.089 383.486 393.14 383.567 393.174C383.647 393.208 383.733 393.224 383.819 393.223L409.695 393.472C409.783 393.476 409.871 393.462 409.955 393.43C410.038 393.399 410.114 393.35 410.178 393.288C410.243 393.225 410.294 393.15 410.33 393.066C410.366 392.982 410.385 392.892 410.386 392.801H410.344ZM375.624 432.748C375.677 432.629 380.089 420.078 393.356 417.081C393.527 417.042 393.676 416.935 393.77 416.783C393.865 416.63 393.897 416.446 393.859 416.269C393.817 416.096 393.712 415.947 393.565 415.852C393.419 415.757 393.243 415.725 393.073 415.761C379.083 418.92 374.44 432.175 374.387 432.305C374.334 432.475 374.346 432.661 374.422 432.823C374.499 432.984 374.633 433.109 374.796 433.17H375.006C375.145 433.183 375.285 433.148 375.404 433.072C375.523 432.996 375.615 432.883 375.666 432.748H375.624ZM378.569 442.67C378.742 442.656 378.903 442.572 379.017 442.437C379.131 442.301 379.188 442.124 379.177 441.945C377.532 416.432 387.089 374.645 402.421 340.345C412.22 318.424 450.63 275.339 451.038 274.906C451.162 274.778 451.231 274.605 451.231 274.425C451.231 274.244 451.162 274.071 451.038 273.943C450.978 273.88 450.906 273.83 450.827 273.796C450.748 273.762 450.663 273.745 450.577 273.745C450.491 273.745 450.406 273.762 450.327 273.796C450.248 273.83 450.176 273.88 450.116 273.943C449.728 274.376 411.162 317.623 401.279 339.739C385.664 374.872 376.232 415.901 377.909 442.032C377.922 442.204 377.997 442.365 378.119 442.483C378.241 442.601 378.402 442.668 378.569 442.67ZM409.915 326.301C410.088 326.29 410.25 326.209 410.366 326.075C410.482 325.941 410.542 325.766 410.533 325.587L408.028 281.82C408.024 281.731 408.003 281.644 407.966 281.563C407.929 281.482 407.877 281.41 407.812 281.351C407.748 281.291 407.673 281.246 407.591 281.217C407.509 281.188 407.423 281.176 407.337 281.182C407.163 281.193 407.001 281.274 406.886 281.408C406.77 281.541 406.71 281.717 406.718 281.896L409.265 325.641C409.273 325.813 409.345 325.976 409.466 326.094C409.587 326.213 409.748 326.28 409.915 326.279V326.301ZM402.097 340.681C402.254 340.607 402.377 340.473 402.439 340.308C402.502 340.142 402.499 339.957 402.432 339.794L386.324 302.172C386.255 302.009 386.125 301.88 385.964 301.816C385.803 301.751 385.623 301.754 385.465 301.826C385.306 301.898 385.182 302.032 385.119 302.198C385.056 302.364 385.06 302.55 385.129 302.713L401.227 340.335C401.277 340.455 401.361 340.558 401.467 340.631C401.573 340.704 401.697 340.744 401.824 340.746C401.933 340.752 402.041 340.729 402.139 340.681H402.097ZM404.884 335.487L443.44 329.796C443.533 329.794 443.625 329.772 443.709 329.73C443.793 329.689 443.868 329.63 443.929 329.557C443.989 329.484 444.034 329.399 444.06 329.306C444.086 329.214 444.093 329.117 444.081 329.022C444.068 328.927 444.036 328.835 443.987 328.754C443.937 328.672 443.872 328.602 443.795 328.548C443.717 328.495 443.63 328.459 443.538 328.443C443.446 328.426 443.352 328.43 443.262 328.454L404.706 334.145C404.534 334.157 404.373 334.239 404.259 334.373C404.145 334.507 404.087 334.682 404.098 334.86C404.109 335.038 404.189 335.204 404.318 335.321C404.448 335.439 404.618 335.499 404.79 335.487H404.884ZM393.891 360.882C394.028 360.771 394.117 360.608 394.138 360.43C394.16 360.252 394.112 360.072 394.006 359.93L373.109 332.209C373.056 332.138 372.99 332.078 372.915 332.033C372.839 331.989 372.756 331.96 372.67 331.948C372.584 331.937 372.497 331.943 372.413 331.966C372.329 331.989 372.25 332.03 372.181 332.084C372.113 332.139 372.055 332.207 372.012 332.285C371.968 332.363 371.94 332.448 371.929 332.537C371.918 332.626 371.924 332.717 371.946 332.803C371.969 332.89 372.008 332.971 372.061 333.042L393 360.806C393.061 360.887 393.139 360.952 393.228 360.997C393.317 361.042 393.414 361.066 393.513 361.066C393.67 361.058 393.819 360.992 393.933 360.882H393.891ZM426.546 353.383C426.552 353.204 426.489 353.03 426.372 352.899C426.254 352.767 426.091 352.689 425.918 352.68L397.192 351.176C397.031 351.188 396.879 351.26 396.766 351.379C396.652 351.499 396.586 351.657 396.578 351.824C396.57 351.99 396.622 352.154 396.724 352.284C396.825 352.414 396.969 352.501 397.129 352.529L425.907 354.033C426.081 354.039 426.249 353.974 426.377 353.852C426.504 353.731 426.58 353.562 426.588 353.383H426.546ZM412.996 375.391C413.006 375.302 412.999 375.212 412.975 375.126C412.95 375.04 412.91 374.96 412.855 374.89C412.8 374.821 412.733 374.763 412.656 374.721C412.579 374.679 412.495 374.653 412.409 374.645L390.401 372.405C390.316 372.396 390.229 372.405 390.147 372.43C390.065 372.456 389.989 372.498 389.922 372.555C389.856 372.611 389.801 372.68 389.761 372.759C389.721 372.837 389.696 372.923 389.688 373.011C389.674 373.188 389.727 373.365 389.836 373.502C389.946 373.64 390.104 373.728 390.275 373.747L412.283 375.997H412.346C412.515 376.009 412.682 375.953 412.811 375.84C412.94 375.726 413.022 375.566 413.038 375.391H412.996ZM385.381 387.12C385.527 387.021 385.628 386.866 385.663 386.69C385.699 386.513 385.665 386.33 385.57 386.179L374.691 369.202C374.592 369.056 374.441 368.955 374.271 368.921C374.101 368.887 373.925 368.922 373.78 369.018C373.634 369.118 373.533 369.272 373.497 369.449C373.462 369.625 373.496 369.809 373.591 369.96L384.469 386.936C384.531 387.029 384.614 387.105 384.711 387.158C384.808 387.211 384.915 387.238 385.025 387.239C385.167 387.247 385.307 387.205 385.423 387.12H385.381ZM410.344 392.801C410.342 392.623 410.273 392.452 410.152 392.325C410.031 392.199 409.867 392.125 409.695 392.119L383.819 391.87C383.647 391.87 383.482 391.941 383.36 392.067C383.238 392.193 383.17 392.363 383.17 392.541C383.167 392.63 383.182 392.719 383.213 392.803C383.245 392.886 383.292 392.962 383.353 393.026C383.414 393.089 383.486 393.14 383.567 393.174C383.647 393.208 383.733 393.224 383.819 393.223L409.695 393.472C409.783 393.476 409.871 393.462 409.955 393.43C410.038 393.399 410.114 393.35 410.178 393.288C410.243 393.225 410.294 393.15 410.33 393.066C410.366 392.982 410.385 392.892 410.386 392.801H410.344ZM375.624 432.748C375.677 432.629 380.089 420.078 393.356 417.081C393.527 417.042 393.676 416.935 393.77 416.783C393.865 416.63 393.897 416.446 393.859 416.269C393.817 416.096 393.712 415.947 393.565 415.852C393.419 415.757 393.243 415.725 393.073 415.761C379.083 418.92 374.44 432.175 374.387 432.305C374.334 432.475 374.346 432.661 374.422 432.823C374.499 432.984 374.633 433.109 374.796 433.17H375.006C375.145 433.183 375.285 433.148 375.404 433.072C375.523 432.996 375.615 432.883 375.666 432.748H375.624Z" fill="black"/>
<path d="M395.683 423.594H366.014V429.935H368.602L373.958 464.527H387.739L393.094 429.935H395.683V423.594Z" fill="#F37335"/>
<path opacity="0.3" d="M395.683 423.594H366.014V429.935H368.602L373.958 464.527H387.739L393.094 429.935H395.683V423.594Z" fill="white"/>
<path d="M128.569 231.864L94.0581 220.233L90.9875 211.858L83.9764 211.631L71.2537 209.142L72.7837 211.858L88.7972 223.857L92.7481 225.891L128.841 245.357L128.569 231.864Z" fill="white" stroke="#263238" stroke-width="1.00396" stroke-miterlimit="10"/>
<path d="M90.9874 211.858L87.6967 209.824L81.1257 212.312L82.2156 213.665L90.9874 211.858Z" fill="white" stroke="#263238" stroke-width="1.00396" stroke-linejoin="round"/>
<path d="M128.569 231.864L94.0581 220.233L90.9875 211.858L83.9764 211.631L71.2537 209.142L72.7837 211.858L88.7972 223.857L92.7481 225.891L128.841 245.357L128.569 231.864Z" fill="white"/>
<mask id="mask0_124_208" style="mask-type:luminance" maskUnits="userSpaceOnUse" x="71" y="209" width="58" height="37">
<path d="M128.569 231.864L94.0581 220.233L90.9875 211.858L83.9764 211.631L71.2537 209.142L72.7837 211.858L88.7972 223.857L92.7481 225.891L128.841 245.357L128.569 231.864Z" fill="white"/>
</mask>
<g mask="url(#mask0_124_208)">
<path opacity="0.5" d="M128.569 231.864L94.0581 220.233L90.9875 211.858L83.9764 211.631L71.2537 209.142L72.7837 211.858L88.7972 223.857L92.7481 225.891L128.841 245.357L128.569 231.864Z" fill="#F37335" stroke="#263238" stroke-width="1.00396" stroke-miterlimit="10"/>
</g>
<path d="M128.569 231.864L94.0581 220.233L90.9875 211.858L83.9764 211.631L71.2537 209.142L72.7837 211.858L88.7972 223.857L92.7481 225.891L128.841 245.357L128.569 231.864Z" stroke="#263238" stroke-width="1.00396" stroke-miterlimit="10"/>
<path d="M90.9874 211.858L87.6967 209.824L81.1257 212.312L82.2156 213.665L90.9874 211.858Z" fill="white"/>
<mask id="mask1_124_208" style="mask-type:luminance" maskUnits="userSpaceOnUse" x="81" y="209" width="10" height="5">
<path d="M90.9874 211.858L87.6967 209.824L81.1257 212.312L82.2156 213.665L90.9874 211.858Z" fill="white"/>
</mask>
<g mask="url(#mask1_124_208)">
<path opacity="0.5" d="M90.9874 211.858L87.6967 209.824L81.1257 212.312L82.2156 213.665L90.9874 211.858Z" fill="#F37335" stroke="#263238" stroke-width="1.00396" stroke-linejoin="round"/>
</g>
<path d="M90.9874 211.858L87.6967 209.824L81.1257 212.312L82.2156 213.665L90.9874 211.858Z" stroke="#263238" stroke-width="1.00396" stroke-linejoin="round"/>
<path d="M135.894 156.373C135.894 156.373 135.36 161.242 136.691 164.369C138.022 167.496 145.41 178.089 145.41 178.089L131.618 189.504C131.618 189.504 125.896 177.602 124.806 175.676C123.717 173.75 122.407 165.462 125.959 159.522C129.512 153.581 134.626 151.98 135.894 156.373Z" fill="white"/>
<mask id="mask2_124_208" style="mask-type:luminance" maskUnits="userSpaceOnUse" x="123" y="153" width="23" height="37">
<path d="M135.894 156.373C135.894 156.373 135.36 161.242 136.691 164.369C138.022 167.496 145.41 178.089 145.41 178.089L131.618 189.504C131.618 189.504 125.896 177.602 124.806 175.676C123.717 173.75 122.407 165.462 125.959 159.522C129.512 153.581 134.626 151.98 135.894 156.373Z" fill="white"/>
</mask>
<g mask="url(#mask2_124_208)">
<g style="mix-blend-mode:multiply" opacity="0.5">
<path d="M128.81 172.019L134.794 184.83L131.608 189.515L125.593 178.424L128.81 172.019Z" fill="#F37335"/>
</g>
</g>
<path d="M135.894 156.373C135.894 156.373 135.36 161.242 136.691 164.369C138.022 167.496 145.41 178.089 145.41 178.089L131.618 189.504C131.618 189.504 125.896 177.602 124.806 175.676C123.717 173.75 122.407 165.462 125.959 159.522C129.512 153.581 134.626 151.98 135.894 156.373Z" stroke="#263238" stroke-width="1.00396" stroke-miterlimit="10"/>
<path d="M140.17 147.457C139.321 142.047 133.316 131.043 123.79 131.465C117.607 131.747 114.714 133.034 112.031 134.603C109.844 135.933 107.806 137.508 105.953 139.299C101.3 145.066 99.6649 146.646 100.566 151.06C100.492 152.821 100.759 154.579 101.352 156.232C102.777 160.16 103.752 162.724 104.989 164.596C104.611 166.425 103.626 171.25 103.574 172.354C103.522 173.458 106.718 172.689 108.332 172.268C111.329 179.192 116.821 183.996 118.529 184.548C121.505 185.511 126.211 180.458 128.705 176.541C131.199 172.625 129.313 168.221 129.323 166.468C129.334 164.715 134.93 160.863 137.005 159.641C139.08 158.418 141.009 152.856 140.17 147.457Z" fill="white"/>
<mask id="mask3_124_208" style="mask-type:luminance" maskUnits="userSpaceOnUse" x="100" y="131" width="41" height="54">
<path d="M140.17 147.457C139.321 142.047 133.316 131.043 123.79 131.465C117.607 131.747 114.714 133.034 112.031 134.603C109.844 135.933 107.806 137.508 105.953 139.299C101.3 145.066 99.6649 146.646 100.566 151.06C100.492 152.821 100.759 154.579 101.352 156.232C102.777 160.16 103.752 162.724 104.989 164.596C104.611 166.425 103.626 171.25 103.574 172.354C103.522 173.458 106.718 172.689 108.332 172.268C111.329 179.192 116.821 183.996 118.529 184.548C121.505 185.511 126.211 180.458 128.705 176.541C131.199 172.625 129.313 168.221 129.323 166.468C129.334 164.715 134.93 160.863 137.005 159.641C139.08 158.418 141.009 152.856 140.17 147.457Z" fill="white"/>
</mask>
<g mask="url(#mask3_124_208)">
<g style="mix-blend-mode:multiply" opacity="0.5">
<path d="M100.608 151.06C100.534 152.821 100.801 154.579 101.394 156.232C102.819 160.16 103.794 162.724 105.031 164.596C104.653 166.425 103.668 171.25 103.616 172.354C103.563 173.458 106.76 172.689 108.374 172.268C111.371 179.192 116.863 183.996 118.571 184.548C121.547 185.511 126.253 180.458 128.747 176.541C129.37 175.564 129.775 174.455 129.931 173.295C129.795 172.787 129.701 172.473 129.701 172.473C129.701 172.473 128.296 178.045 125.509 177.32C122.721 176.596 118.456 170.828 116.077 168.838C113.698 166.847 114.672 164.228 114.201 161.264C113.729 158.299 106.686 155.691 106.215 153.993C105.743 152.294 107.389 145.261 107.389 145.261C107.389 145.261 110.061 141.582 109.485 143.097C109.077 144.41 108.929 145.795 109.05 147.168C109.171 148.542 109.557 149.876 110.187 151.093C110.629 152.053 111.329 152.86 112.205 153.419C113.081 153.977 114.094 154.263 115.123 154.241L117.68 141.16L112.283 136.551L105.995 139.256C101.3 145.066 99.6963 146.646 100.608 151.06Z" fill="#F37335"/>
</g>
</g>
<path d="M140.17 147.457C139.321 142.047 133.316 131.043 123.79 131.465C117.607 131.747 114.714 133.034 112.031 134.603C109.844 135.933 107.806 137.508 105.953 139.299C101.3 145.066 99.6649 146.646 100.566 151.06C100.492 152.821 100.759 154.579 101.352 156.232C102.777 160.16 103.752 162.724 104.989 164.596C104.611 166.425 103.626 171.25 103.574 172.354C103.522 173.458 106.718 172.689 108.332 172.268C111.329 179.192 116.821 183.996 118.529 184.548C121.505 185.511 126.211 180.458 128.705 176.541C131.199 172.625 129.313 168.221 129.323 166.468C129.334 164.715 134.93 160.863 137.005 159.641C139.08 158.418 141.009 152.856 140.17 147.457Z" stroke="#263238" stroke-miterlimit="10"/>
<path d="M106.288 161.328L107.336 164.423C107.336 164.423 109.59 165.191 112.335 162.097" stroke="#263238" stroke-miterlimit="10" stroke-linecap="round"/>
<path d="M114.033 175.784C114.033 175.784 116.527 175.524 117.533 171.91" stroke="#263238" stroke-miterlimit="10" stroke-linecap="round"/>
<path d="M104.538 158.742C104.538 158.742 105.282 156.416 109.778 156.416" stroke="#263238" stroke-miterlimit="10" stroke-linecap="round"/>
<path d="M127.584 127.159C124.317 126.674 121.022 126.414 117.722 126.38C117.722 126.38 107.85 120.505 98.3653 126.769C88.8809 133.034 93.4397 144.006 93.4397 146.743C93.4397 149.481 90.4005 149.491 92.2974 153.019C94.1943 156.546 100.608 154.598 100.608 154.598C100.676 153.268 101.016 151.968 101.607 150.783C102.198 149.599 103.025 148.557 104.035 147.728C107.451 144.99 110.176 144.395 111.308 145.185C111.308 145.185 110.554 151.06 111.685 153.408C111.685 153.408 115.479 155.367 116.621 155.367C117.764 155.367 115.877 157.022 119.661 158.494C120.35 158.749 121.087 158.836 121.815 158.748C122.542 158.66 123.24 158.399 123.853 157.985C124.408 155.605 125.624 152.023 127.887 152.856C131.21 154.079 134.238 162.519 129.742 165.397C135.15 166.414 141.7 156.535 142.088 147.533C142.476 138.531 133.201 128.176 127.584 127.159Z" fill="#263238"/>
<path d="M111.476 141.322C111.476 141.322 114.264 139.775 117.68 143.086C121.096 146.397 127.741 150.822 136.544 148.388" stroke="white" stroke-width="0.5" stroke-linecap="round" stroke-linejoin="round"/>
<path d="M111.088 138.671C111.088 138.671 113.006 135.577 116.213 135.577C119.42 135.577 126.913 140.219 132.897 140.219" stroke="white" stroke-width="0.5" stroke-linecap="round" stroke-linejoin="round"/>
<path d="M108.908 144.633C108.908 144.633 105.272 140.002 101.855 143.757C98.4388 147.511 100.608 151.06 100.608 151.06" stroke="white" stroke-width="0.5" stroke-linecap="round" stroke-linejoin="round"/>
<path d="M94.3726 147.728C96.4565 145.787 97.752 143.105 97.9986 140.219C98.4283 135.36 104.853 131.162 108.908 135.144" stroke="white" stroke-width="0.5" stroke-linecap="round" stroke-linejoin="round"/>
<path d="M100.996 130.059C100.996 130.059 107.42 123.653 112.765 131.822" stroke="white" stroke-width="0.5" stroke-linecap="round" stroke-linejoin="round"/>
<path d="M153.28 444.996C153.28 444.996 157.231 451.337 156.791 455.416L156.362 459.495C156.362 459.495 141.868 463.596 138.797 463.596C135.726 463.596 119.472 462.005 119.472 462.005L118.77 459.127C118.721 458.915 118.744 458.691 118.835 458.494C118.927 458.297 119.081 458.139 119.273 458.045L133.767 451.066L138.336 445.905L153.28 444.996Z" fill="white" stroke="#263238" stroke-width="1.00396" stroke-miterlimit="10"/>
<path d="M140.998 460.404C144.928 460.718 152.39 458.24 156.718 456.66L156.414 459.495C156.414 459.495 141.868 463.596 138.797 463.596C135.727 463.596 119.472 462.005 119.472 462.005L118.969 459.95C121.568 459.96 135.8 459.993 140.998 460.404Z" fill="#F37335" stroke="#263238" stroke-width="1.00396" stroke-miterlimit="10"/>
<path d="M133.788 451.066L112.692 460.545C112.692 460.545 110.889 465.208 112.692 466.139C114.494 467.069 153.794 466.139 153.794 466.139C153.794 466.139 156.508 458.77 152.222 453.826C147.936 448.881 133.788 451.066 133.788 451.066Z" fill="white" stroke="#263238" stroke-width="1.00396" stroke-miterlimit="10"/>
<path d="M153.794 466.139C153.794 466.139 114.494 467.069 112.691 466.139C111.822 465.684 111.79 464.375 111.989 463.131H154.486C154.347 464.154 154.115 465.161 153.794 466.139Z" fill="#F37335" stroke="#263238" stroke-width="1.00396" stroke-miterlimit="10"/>
<path d="M123.811 286.375C123.811 286.375 118.298 311.597 116.213 327.372C114.127 343.148 112.901 374.753 113.341 378.378C113.782 382.002 135.727 442.735 135.727 442.735L137.917 448.145L153.281 444.975C153.281 444.975 146.259 421.863 143.629 409.171C140.998 396.48 135.245 375.629 135.245 372.005C135.245 368.38 148.869 299.154 149.843 294.609C150.818 290.065 155.24 283.086 155.24 283.086L125.823 282.469L123.811 286.375Z" fill="#F37335" stroke="#263238" stroke-width="1.00396" stroke-miterlimit="10"/>
<path d="M123.811 286.375C123.811 286.375 120.583 309.411 121.914 325.425C123.245 341.438 126.106 375.532 126.106 380.607C126.106 385.681 134.039 415.988 134.49 425.51C135.192 439.262 134.207 446.068 134.207 446.068L133.735 451.056C133.735 451.056 142.989 452.419 145.012 453.014C147.348 453.635 149.759 453.905 152.17 453.815C152.17 453.815 155.534 438.526 155.534 425.499C155.534 412.472 152.736 385.66 151.342 374.796C149.948 363.933 154.339 322.027 156.833 314.204C159.327 306.381 164.777 289.816 161.109 281.355C157.441 272.894 123.811 286.375 123.811 286.375Z" fill="#F37335" stroke="#263238" stroke-width="1.00396" stroke-miterlimit="10"/>
<path d="M165.186 277.113L164.85 287.414C164.85 287.414 158.877 288.637 150.828 290.076C144.184 291.266 127.5 289.762 121.882 289.199C121.371 289.152 120.897 288.899 120.566 288.493C120.234 288.088 120.071 287.564 120.111 287.035L120.656 277.73L165.186 277.113Z" fill="#263238"/>
<path d="M141.837 174.431C141.837 174.431 132.405 184.959 128.852 191.505C125.299 198.052 123.895 208.082 122.564 215.98C121.233 223.879 124.838 242.424 123.821 250.94L120.604 277.762C120.604 277.762 119.912 279.58 122.228 281.571C124.545 283.562 135.852 284.287 146.07 284.817C149.801 285.012 160.942 282.534 162.765 282.415C164.966 282.274 165.039 279.385 165.134 277.113C165.574 266.434 167.439 237.967 168.665 225.567C171.191 200.28 157.368 175.871 141.837 174.431Z" fill="white" stroke="#263238" stroke-width="1.00396" stroke-miterlimit="10"/>
<g style="mix-blend-mode:multiply">
<path d="M167.512 239.947C167.932 234.331 168.351 229.235 168.718 225.567C168.822 224.485 168.885 223.403 168.938 222.321L143.88 226.649L122.354 219.075C122.356 223.673 122.608 228.268 123.109 232.838L144.226 238.94L167.512 239.947Z" fill="#F37335"/>
</g>
<g style="mix-blend-mode:multiply">
<path d="M140.904 175.492C139.479 177.126 136.649 180.447 133.956 183.975L149.864 200.67L155.104 198.506L140.904 175.492Z" fill="#F37335"/>
</g>
<path d="M141.837 174.431C141.837 174.431 132.405 184.959 128.852 191.505C127.798 193.495 126.945 195.59 126.305 197.759L145.274 175.135C144.153 174.784 143.002 174.549 141.837 174.431Z" fill="#263238"/>
<g style="mix-blend-mode:multiply">
<path d="M123.297 211.717L143.88 218.707L168.875 215.742C168.483 209.314 167.1 202.991 164.777 197.013L144.624 205.355L126.609 196.926C125.136 201.761 124.029 206.706 123.297 211.717Z" fill="#F37335"/>
</g>
<g style="mix-blend-mode:multiply">
<path d="M158.73 266.434C148.291 268.244 137.579 267.34 127.563 263.805L122.543 262.03L120.981 275.014L126.703 276.67C137.581 279.81 148.95 280.714 160.166 279.331L164.788 278.758C165.028 278.232 165.164 277.662 165.186 277.081C165.312 274.192 165.532 269.994 165.815 265.179L158.73 266.434Z" fill="#F37335"/>
</g>
<g style="mix-blend-mode:multiply">
<path d="M161.528 248.754C151.088 250.571 140.374 249.663 130.361 246.114L123.968 243.853C124.127 246.21 124.095 248.577 123.874 250.929L123.13 257.172L129.501 259.011C140.375 262.155 151.741 263.063 162.954 261.684L166.098 261.294C166.36 256.966 166.664 252.357 166.988 247.802L161.528 248.754Z" fill="#F37335"/>
</g>
<path d="M63.2063 202.998L83.4697 219.819L84.3431 218.698L64.0796 201.877L63.2063 202.998Z" fill="#263238"/>
<path d="M151.593 186.106C151.593 186.106 159.024 191.332 159.191 203.678C159.265 209.088 158.72 214.141 157.515 223.002C156.309 231.864 148.827 260.721 143 264.227C137.173 267.732 128.129 261.111 128.129 261.111L84.3851 231.128L73.8108 222.31L68.5708 212.096L70.2162 208.85L83.117 219.064L76.1688 212.431L77.5312 210.646L80.0464 212.453L87.3824 215.288L88.9858 226.108L91.2495 227.709L133.096 243.496C133.096 243.496 132.572 220.243 132.96 215.796C133.348 211.349 133.882 200.172 138.493 192.068" fill="white"/>
<mask id="mask4_124_208" style="mask-type:luminance" maskUnits="userSpaceOnUse" x="68" y="186" width="92" height="80">
<path d="M151.593 186.106C151.593 186.106 159.024 191.332 159.191 203.678C159.265 209.088 158.72 214.141 157.515 223.002C156.309 231.864 148.827 260.721 143 264.227C137.173 267.732 128.129 261.111 128.129 261.111L84.3851 231.128L73.8108 222.31L68.5708 212.096L70.2162 208.85L83.117 219.064L76.1688 212.431L77.5312 210.646L80.0464 212.453L87.3824 215.288L88.9858 226.108L91.2495 227.709L133.096 243.496C133.096 243.496 132.572 220.243 132.96 215.796C133.348 211.349 133.882 200.172 138.493 192.068" fill="white"/>
</mask>
<g mask="url(#mask4_124_208)">
<g style="mix-blend-mode:multiply" opacity="0.5">
<path d="M132.803 225.924C132.803 233.952 133.065 243.496 133.065 243.496L91.2599 227.774L88.9962 226.173L87.3928 215.353L80.0568 212.518L77.5521 210.678L76.1897 212.464L83.1169 219.064L70.2161 208.85L68.6545 212.042L73.8945 222.256L84.4689 231.128L87.1308 232.957L144.928 252.184L132.803 225.924Z" fill="#F37335"/>
</g>
</g>
<path d="M151.593 186.106C151.593 186.106 159.024 191.332 159.191 203.678C159.265 209.088 158.72 214.141 157.515 223.002C156.309 231.864 148.827 260.721 143 264.227C137.173 267.732 128.129 261.111 128.129 261.111L84.3851 231.128L73.8108 222.31L68.5708 212.096L70.2162 208.85L83.117 219.064L76.1688 212.431L77.5312 210.646L80.0464 212.453L87.3824 215.288L88.9858 226.108L91.2495 227.709L133.096 243.496C133.096 243.496 132.572 220.243 132.96 215.796C133.348 211.349 133.882 200.172 138.493 192.068" stroke="#263238" stroke-width="1.00396" stroke-miterlimit="10"/>
<path d="M133.096 243.496L149.068 255.398L153.207 247.824C153.207 247.824 156.068 245.497 156.487 243.744C156.907 241.992 156.372 239.146 156.802 237.393C157.231 235.64 159.369 233.996 159.568 229.754C159.768 225.513 159.568 221.975 159.568 221.975C159.568 221.975 163.027 207.292 162.65 200.908C162.272 194.524 156.309 183.239 151.53 182.99C146.751 182.741 140.537 183.488 135.716 191.019C130.895 198.549 131.88 220.536 131.126 221.91C130.371 223.284 131.419 230.068 131.419 230.068C131 230.39 130.653 230.801 130.4 231.273C130.147 231.745 129.994 232.268 129.952 232.805C129.868 234.569 131.713 238.908 131.713 238.908L133.096 243.496Z" fill="white" stroke="#263238" stroke-width="1.00396" stroke-miterlimit="10"/>
<g style="mix-blend-mode:multiply">
<path d="M131.545 216.262C131.578 218.15 131.441 220.037 131.136 221.899C130.466 223.132 131.231 228.705 131.398 229.841C140.382 232.721 149.881 233.461 159.181 232.005C159.381 231.252 159.5 230.479 159.537 229.7C159.747 225.469 159.537 221.92 159.537 221.92C159.537 221.92 159.841 220.611 160.26 218.62C150.629 219.252 140.959 218.458 131.545 216.262Z" fill="#F37335"/>
</g>
<g style="mix-blend-mode:multiply">
<path d="M135.066 192.22C133.568 195.325 132.729 199.988 132.247 204.717C141.761 208.465 152.019 209.754 162.126 208.471C162.529 205.969 162.708 203.433 162.66 200.897C162.479 198.892 162.02 196.925 161.298 195.054C152.473 195.267 143.658 194.314 135.066 192.22Z" fill="#F37335"/>
</g>
<path d="M131.713 239.027L133.065 243.496L149.036 255.398L153.176 247.824C153.176 247.824 156.037 245.497 156.456 243.744C156.531 243.44 156.576 243.128 156.592 242.814C148.176 242.664 139.813 241.391 131.713 239.027Z" fill="#263238"/>
<path d="M143.272 452.873C143.272 452.873 143.628 443.503 145.368 429.805C147.108 416.107 142.926 396.653 142.224 393.407C141.522 390.161 142.58 382.954 141.878 380.423C141.176 377.891 137.781 367.092 139.782 354.563C141.784 342.033 143.408 308.913 143.408 308.913C143.408 308.913 138.367 304.683 136.89 299.175C135.412 293.668 136.544 291.937 136.544 291.937" stroke="#263238" stroke-width="1.00396" stroke-miterlimit="10"/>
<path d="M145.609 292.445L143.67 303.525" stroke="#263238" stroke-width="1.00396" stroke-miterlimit="10"/>
</svg>
